# xmcd CD database file
#
# Track frame offsets:
#	150
#	31602
#	52967
#	88503
#	112418
#	143497
#	164757
#
# Disc length: 2610 seconds
#
# Revision: 0
# Processed by: cddbd v1.5.2PL0 Copyright (c) Steve Scherf et al.
# Submitted via: CDex 1.70beta2
#
DISCID=560a3007
DTITLE=Rob Whitlock - Sketchin' 2
DYEAR=2003
DGENRE=Jazz
TTITLE0=2nd Service
TTITLE1=Them There Eyes
TTITLE2=Gotta' Insulator
TTITLE3=Cold Duck Time
TTITLE4=At Freedom Chicken Dance
TTITLE5=Do I Love You
TTITLE6=The Colours Of Life (Instrumental Reprise)
EXTD=YEAR: 2003
EXTT0=
EXTT1=
EXTT2=
EXTT3=
EXTT4=
EXTT5=
EXTT6=
PLAYORDER=
